
<svg width="403" height="58" viewBox="0 0 403 58" fill="none" xmlns="http://www.w3.org/2000/svg">
<g filter="url(#filter0_d_2225_2662)">
<rect x="2" y="1" width="399" height="54" rx="8" fill="white" shape-rendering="crispEdges"/>
<rect x="2.5" y="1.5" width="398" height="53" rx="7.5" stroke="#E6E8E7" shape-rendering="crispEdges"/>
<path d="M102.119 26H100.534C100.44 25.544 100.276 25.1435 100.042 24.7983C99.8118 24.4531 99.5305 24.1634 99.1982 23.929C98.87 23.6903 98.5057 23.5114 98.1051 23.392C97.7045 23.2727 97.2869 23.2131 96.8523 23.2131C96.0597 23.2131 95.3416 23.4134 94.6982 23.8139C94.0589 24.2145 93.5497 24.8047 93.1705 25.5845C92.7955 26.3643 92.608 27.321 92.608 28.4545C92.608 29.5881 92.7955 30.5447 93.1705 31.3246C93.5497 32.1044 94.0589 32.6946 94.6982 33.0952C95.3416 33.4957 96.0597 33.696 96.8523 33.696C97.2869 33.696 97.7045 33.6364 98.1051 33.517C98.5057 33.3977 98.87 33.2209 99.1982 32.9865C99.5305 32.7479 99.8118 32.456 100.042 32.1108C100.276 31.7614 100.44 31.3608 100.534 30.9091H102.119C102 31.5781 101.783 32.1768 101.467 32.7053C101.152 33.2337 100.76 33.6832 100.291 34.054C99.8224 34.4205 99.2962 34.6996 98.7124 34.8913C98.1328 35.0831 97.5128 35.179 96.8523 35.179C95.7358 35.179 94.7429 34.9062 93.8736 34.3608C93.0043 33.8153 92.3203 33.0398 91.8217 32.0341C91.3232 31.0284 91.0739 29.8352 91.0739 28.4545C91.0739 27.0739 91.3232 25.8807 91.8217 24.875C92.3203 23.8693 93.0043 23.0938 93.8736 22.5483C94.7429 22.0028 95.7358 21.7301 96.8523 21.7301C97.5128 21.7301 98.1328 21.826 98.7124 22.0178C99.2962 22.2095 99.8224 22.4908 100.291 22.8615C100.76 23.228 101.152 23.6754 101.467 24.2038C101.783 24.728 102 25.3267 102.119 26ZM108.285 35.2045C107.399 35.2045 106.621 34.9936 105.952 34.5717C105.287 34.1499 104.767 33.5597 104.392 32.8011C104.022 32.0426 103.836 31.1562 103.836 30.142C103.836 29.1193 104.022 28.2266 104.392 27.4638C104.767 26.701 105.287 26.1087 105.952 25.6868C106.621 25.2649 107.399 25.054 108.285 25.054C109.171 25.054 109.947 25.2649 110.612 25.6868C111.281 26.1087 111.801 26.701 112.171 27.4638C112.546 28.2266 112.734 29.1193 112.734 30.142C112.734 31.1562 112.546 32.0426 112.171 32.8011C111.801 33.5597 111.281 34.1499 110.612 34.5717C109.947 34.9936 109.171 35.2045 108.285 35.2045ZM108.285 33.8494C108.958 33.8494 109.512 33.6768 109.947 33.3317C110.382 32.9865 110.703 32.5327 110.912 31.9702C111.121 31.4077 111.225 30.7983 111.225 30.142C111.225 29.4858 111.121 28.8743 110.912 28.3075C110.703 27.7408 110.382 27.2827 109.947 26.9332C109.512 26.5838 108.958 26.4091 108.285 26.4091C107.612 26.4091 107.058 26.5838 106.623 26.9332C106.188 27.2827 105.867 27.7408 105.658 28.3075C105.449 28.8743 105.345 29.4858 105.345 30.142C105.345 30.7983 105.449 31.4077 105.658 31.9702C105.867 32.5327 106.188 32.9865 106.623 33.3317C107.058 33.6768 107.612 33.8494 108.285 33.8494ZM116.365 29.0938V35H114.857V25.1818H116.314V26.7159H116.442C116.672 26.2173 117.021 25.8168 117.49 25.5142C117.959 25.2074 118.564 25.054 119.305 25.054C119.97 25.054 120.552 25.1903 121.051 25.4631C121.549 25.7315 121.937 26.1406 122.214 26.6903C122.491 27.2358 122.629 27.9261 122.629 28.7614V35H121.121V28.8636C121.121 28.0923 120.921 27.4915 120.52 27.0611C120.119 26.6264 119.57 26.4091 118.871 26.4091C118.389 26.4091 117.959 26.5135 117.58 26.7223C117.205 26.9311 116.908 27.2358 116.691 27.6364C116.474 28.0369 116.365 28.5227 116.365 29.0938ZM129.476 25.1818V26.4602H124.388V25.1818H129.476ZM125.871 22.8295H127.379V32.1875C127.379 32.6136 127.441 32.9332 127.565 33.1463C127.692 33.3551 127.854 33.4957 128.05 33.5682C128.251 33.6364 128.462 33.6705 128.683 33.6705C128.849 33.6705 128.986 33.6619 129.092 33.6449C129.199 33.6236 129.284 33.6065 129.348 33.5938L129.655 34.9489C129.553 34.9872 129.41 35.0256 129.227 35.0639C129.043 35.1065 128.811 35.1278 128.53 35.1278C128.104 35.1278 127.686 35.0362 127.277 34.853C126.872 34.6697 126.535 34.3906 126.267 34.0156C126.003 33.6406 125.871 33.1676 125.871 32.5966V22.8295ZM131.565 35V25.1818H133.074V35H131.565ZM132.332 23.5455C132.038 23.5455 131.784 23.4453 131.571 23.245C131.363 23.0447 131.258 22.804 131.258 22.5227C131.258 22.2415 131.363 22.0007 131.571 21.8004C131.784 21.6001 132.038 21.5 132.332 21.5C132.626 21.5 132.877 21.6001 133.086 21.8004C133.299 22.0007 133.406 22.2415 133.406 22.5227C133.406 22.804 133.299 23.0447 133.086 23.245C132.877 23.4453 132.626 23.5455 132.332 23.5455ZM137.165 29.0938V35H135.656V25.1818H137.114V26.7159H137.242C137.472 26.2173 137.821 25.8168 138.29 25.5142C138.759 25.2074 139.364 25.054 140.105 25.054C140.77 25.054 141.352 25.1903 141.85 25.4631C142.349 25.7315 142.737 26.1406 143.014 26.6903C143.291 27.2358 143.429 27.9261 143.429 28.7614V35H141.921V28.8636C141.921 28.0923 141.72 27.4915 141.32 27.0611C140.919 26.6264 140.37 26.4091 139.671 26.4091C139.189 26.4091 138.759 26.5135 138.379 26.7223C138.004 26.9311 137.708 27.2358 137.491 27.6364C137.274 28.0369 137.165 28.5227 137.165 29.0938ZM152.193 30.9858V25.1818H153.702V35H152.193V33.3381H152.091C151.861 33.8366 151.503 34.2607 151.017 34.6101C150.531 34.9553 149.918 35.1278 149.176 35.1278C148.563 35.1278 148.017 34.9936 147.54 34.7251C147.063 34.4524 146.688 34.0433 146.415 33.4979C146.142 32.9482 146.006 32.2557 146.006 31.4205V25.1818H147.514V31.3182C147.514 32.0341 147.715 32.6051 148.115 33.0312C148.52 33.4574 149.036 33.6705 149.662 33.6705C150.037 33.6705 150.418 33.5746 150.806 33.3828C151.198 33.1911 151.526 32.897 151.791 32.5007C152.059 32.1044 152.193 31.5994 152.193 30.9858ZM160.401 35.2045C159.455 35.2045 158.639 34.9957 157.953 34.5781C157.271 34.1562 156.745 33.5682 156.374 32.8139C156.008 32.0554 155.825 31.1733 155.825 30.1676C155.825 29.1619 156.008 28.2756 156.374 27.5085C156.745 26.7372 157.261 26.1364 157.921 25.706C158.586 25.2713 159.361 25.054 160.248 25.054C160.759 25.054 161.264 25.1392 161.763 25.3097C162.261 25.4801 162.715 25.7571 163.124 26.1406C163.533 26.5199 163.859 27.0227 164.102 27.6491C164.345 28.2756 164.467 29.0469 164.467 29.9631V30.6023H156.898V29.2983H162.932C162.932 28.7443 162.822 28.25 162.6 27.8153C162.383 27.3807 162.072 27.0376 161.667 26.7862C161.266 26.5348 160.793 26.4091 160.248 26.4091C159.647 26.4091 159.127 26.5582 158.688 26.8565C158.253 27.1506 157.919 27.5341 157.685 28.0071C157.45 28.4801 157.333 28.9872 157.333 29.5284V30.3977C157.333 31.1392 157.461 31.7678 157.717 32.2834C157.977 32.7947 158.337 33.1847 158.797 33.4531C159.257 33.7173 159.792 33.8494 160.401 33.8494C160.798 33.8494 161.155 33.794 161.475 33.6832C161.799 33.5682 162.078 33.3977 162.312 33.1719C162.547 32.9418 162.728 32.6562 162.856 32.3153L164.313 32.7244C164.16 33.2188 163.902 33.6534 163.54 34.0284C163.177 34.3991 162.73 34.6889 162.197 34.8977C161.665 35.1023 161.066 35.2045 160.401 35.2045ZM173.688 35L170.697 25.1818H172.282L174.404 32.6989H174.506L176.603 25.1818H178.214L180.285 32.6733H180.387L182.509 25.1818H184.094L181.103 35H179.62L177.472 27.4574H177.319L175.171 35H173.688ZM185.909 35V25.1818H187.417V35H185.909ZM186.676 23.5455C186.382 23.5455 186.128 23.4453 185.915 23.245C185.706 23.0447 185.602 22.804 185.602 22.5227C185.602 22.2415 185.706 22.0007 185.915 21.8004C186.128 21.6001 186.382 21.5 186.676 21.5C186.97 21.5 187.221 21.6001 187.43 21.8004C187.643 22.0007 187.75 22.2415 187.75 22.5227C187.75 22.804 187.643 23.0447 187.43 23.245C187.221 23.4453 186.97 23.5455 186.676 23.5455ZM194.27 25.1818V26.4602H189.182V25.1818H194.27ZM190.665 22.8295H192.174V32.1875C192.174 32.6136 192.235 32.9332 192.359 33.1463C192.487 33.3551 192.649 33.4957 192.845 33.5682C193.045 33.6364 193.256 33.6705 193.478 33.6705C193.644 33.6705 193.78 33.6619 193.887 33.6449C193.993 33.6236 194.078 33.6065 194.142 33.5938L194.449 34.9489C194.347 34.9872 194.204 35.0256 194.021 35.0639C193.838 35.1065 193.605 35.1278 193.324 35.1278C192.898 35.1278 192.48 35.0362 192.071 34.853C191.666 34.6697 191.33 34.3906 191.061 34.0156C190.797 33.6406 190.665 33.1676 190.665 32.5966V22.8295ZM198.079 29.0938V35H196.57V21.9091H198.079V26.7159H198.207C198.437 26.2088 198.782 25.8061 199.242 25.5078C199.707 25.2053 200.325 25.054 201.096 25.054C201.765 25.054 202.351 25.1882 202.854 25.4567C203.357 25.7209 203.746 26.1278 204.023 26.6776C204.305 27.223 204.445 27.9176 204.445 28.7614V35H202.937V28.8636C202.937 28.0838 202.734 27.4808 202.33 27.0547C201.929 26.6243 201.373 26.4091 200.661 26.4091C200.167 26.4091 199.724 26.5135 199.332 26.7223C198.944 26.9311 198.637 27.2358 198.411 27.6364C198.19 28.0369 198.079 28.5227 198.079 29.0938ZM221.061 26C220.92 25.5696 220.735 25.1839 220.505 24.843C220.279 24.4979 220.008 24.2038 219.693 23.9609C219.382 23.718 219.028 23.5327 218.632 23.4048C218.236 23.277 217.801 23.2131 217.328 23.2131C216.552 23.2131 215.847 23.4134 215.212 23.8139C214.577 24.2145 214.072 24.8047 213.697 25.5845C213.322 26.3643 213.135 27.321 213.135 28.4545C213.135 29.5881 213.324 30.5447 213.704 31.3246C214.083 32.1044 214.596 32.6946 215.244 33.0952C215.892 33.4957 216.621 33.696 217.43 33.696C218.18 33.696 218.841 33.5362 219.412 33.2166C219.987 32.8928 220.435 32.4368 220.754 31.8487C221.078 31.2564 221.24 30.5597 221.24 29.7585L221.726 29.8608H217.788V28.4545H222.774V29.8608C222.774 30.9389 222.544 31.8764 222.084 32.6733C221.628 33.4702 220.997 34.0881 220.192 34.527C219.391 34.9616 218.47 35.179 217.43 35.179C216.271 35.179 215.253 34.9062 214.375 34.3608C213.501 33.8153 212.819 33.0398 212.329 32.0341C211.844 31.0284 211.601 29.8352 211.601 28.4545C211.601 27.419 211.739 26.4879 212.016 25.6612C212.297 24.8303 212.694 24.1229 213.205 23.5391C213.717 22.9553 214.322 22.5078 215.02 22.1967C215.719 21.8857 216.489 21.7301 217.328 21.7301C218.018 21.7301 218.662 21.8345 219.258 22.0433C219.859 22.2479 220.394 22.5398 220.863 22.919C221.336 23.294 221.73 23.7436 222.045 24.2678C222.361 24.7876 222.578 25.3651 222.697 26H221.061ZM229.093 35.2045C228.207 35.2045 227.429 34.9936 226.76 34.5717C226.095 34.1499 225.575 33.5597 225.2 32.8011C224.83 32.0426 224.644 31.1562 224.644 30.142C224.644 29.1193 224.83 28.2266 225.2 27.4638C225.575 26.701 226.095 26.1087 226.76 25.6868C227.429 25.2649 228.207 25.054 229.093 25.054C229.98 25.054 230.755 25.2649 231.42 25.6868C232.089 26.1087 232.609 26.701 232.98 27.4638C233.355 28.2266 233.542 29.1193 233.542 30.142C233.542 31.1562 233.355 32.0426 232.98 32.8011C232.609 33.5597 232.089 34.1499 231.42 34.5717C230.755 34.9936 229.98 35.2045 229.093 35.2045ZM229.093 33.8494C229.766 33.8494 230.32 33.6768 230.755 33.3317C231.19 32.9865 231.511 32.5327 231.72 31.9702C231.929 31.4077 232.033 30.7983 232.033 30.142C232.033 29.4858 231.929 28.8743 231.72 28.3075C231.511 27.7408 231.19 27.2827 230.755 26.9332C230.32 26.5838 229.766 26.4091 229.093 26.4091C228.42 26.4091 227.866 26.5838 227.431 26.9332C226.997 27.2827 226.675 27.7408 226.466 28.3075C226.257 28.8743 226.153 29.4858 226.153 30.142C226.153 30.7983 226.257 31.4077 226.466 31.9702C226.675 32.5327 226.997 32.9865 227.431 33.3317C227.866 33.6768 228.42 33.8494 229.093 33.8494ZM239.653 35.2045C238.767 35.2045 237.989 34.9936 237.32 34.5717C236.656 34.1499 236.136 33.5597 235.761 32.8011C235.39 32.0426 235.205 31.1562 235.205 30.142C235.205 29.1193 235.39 28.2266 235.761 27.4638C236.136 26.701 236.656 26.1087 237.32 25.6868C237.989 25.2649 238.767 25.054 239.653 25.054C240.54 25.054 241.315 25.2649 241.98 25.6868C242.649 26.1087 243.169 26.701 243.54 27.4638C243.915 28.2266 244.102 29.1193 244.102 30.142C244.102 31.1562 243.915 32.0426 243.54 32.8011C243.169 33.5597 242.649 34.1499 241.98 34.5717C241.315 34.9936 240.54 35.2045 239.653 35.2045ZM239.653 33.8494C240.327 33.8494 240.881 33.6768 241.315 33.3317C241.75 32.9865 242.072 32.5327 242.281 31.9702C242.489 31.4077 242.594 30.7983 242.594 30.142C242.594 29.4858 242.489 28.8743 242.281 28.3075C242.072 27.7408 241.75 27.2827 241.315 26.9332C240.881 26.5838 240.327 26.4091 239.653 26.4091C238.98 26.4091 238.426 26.5838 237.991 26.9332C237.557 27.2827 237.235 27.7408 237.026 28.3075C236.817 28.8743 236.713 29.4858 236.713 30.142C236.713 30.7983 236.817 31.4077 237.026 31.9702C237.235 32.5327 237.557 32.9865 237.991 33.3317C238.426 33.6768 238.98 33.8494 239.653 33.8494ZM250.188 38.8864C249.459 38.8864 248.833 38.7926 248.309 38.6051C247.785 38.4219 247.348 38.179 246.998 37.8764C246.653 37.5781 246.378 37.2585 246.174 36.9176L247.376 36.0739C247.512 36.2528 247.684 36.4574 247.893 36.6875C248.102 36.9219 248.388 37.1243 248.75 37.2947C249.116 37.4695 249.596 37.5568 250.188 37.5568C250.981 37.5568 251.635 37.3651 252.15 36.9815C252.666 36.598 252.924 35.9972 252.924 35.179V33.1847H252.796C252.685 33.3636 252.528 33.5852 252.323 33.8494C252.123 34.1094 251.833 34.3416 251.454 34.5462C251.079 34.7464 250.572 34.8466 249.932 34.8466C249.14 34.8466 248.428 34.6591 247.797 34.2841C247.171 33.9091 246.675 33.3636 246.308 32.6477C245.946 31.9318 245.765 31.0625 245.765 30.0398C245.765 29.0341 245.942 28.1584 246.295 27.4126C246.649 26.6626 247.141 26.0831 247.772 25.674C248.403 25.2607 249.131 25.054 249.958 25.054C250.597 25.054 251.104 25.1605 251.479 25.3736C251.859 25.5824 252.148 25.821 252.349 26.0895C252.553 26.3537 252.711 26.571 252.822 26.7415H252.975V25.1818H254.432V35.2812C254.432 36.125 254.241 36.8111 253.857 37.3395C253.478 37.8722 252.966 38.2621 252.323 38.5092C251.684 38.7607 250.972 38.8864 250.188 38.8864ZM250.137 33.4915C250.742 33.4915 251.253 33.353 251.671 33.076C252.089 32.799 252.406 32.4006 252.623 31.8807C252.841 31.3608 252.949 30.7386 252.949 30.0142C252.949 29.3068 252.843 28.6825 252.63 28.1413C252.417 27.6001 252.101 27.1761 251.684 26.8693C251.266 26.5625 250.751 26.4091 250.137 26.4091C249.498 26.4091 248.965 26.571 248.539 26.8949C248.117 27.2187 247.8 27.6534 247.586 28.1989C247.378 28.7443 247.273 29.3494 247.273 30.0142C247.273 30.696 247.38 31.299 247.593 31.8232C247.81 32.343 248.13 32.7521 248.552 33.0504C248.978 33.3445 249.506 33.4915 250.137 33.4915ZM258.522 21.9091V35H257.014V21.9091H258.522ZM265.222 35.2045C264.276 35.2045 263.46 34.9957 262.774 34.5781C262.092 34.1562 261.565 33.5682 261.195 32.8139C260.828 32.0554 260.645 31.1733 260.645 30.1676C260.645 29.1619 260.828 28.2756 261.195 27.5085C261.565 26.7372 262.081 26.1364 262.742 25.706C263.406 25.2713 264.182 25.054 265.068 25.054C265.58 25.054 266.085 25.1392 266.583 25.3097C267.082 25.4801 267.536 25.7571 267.945 26.1406C268.354 26.5199 268.68 27.0227 268.923 27.6491C269.166 28.2756 269.287 29.0469 269.287 29.9631V30.6023H261.719V29.2983H267.753C267.753 28.7443 267.642 28.25 267.421 27.8153C267.203 27.3807 266.892 27.0376 266.487 26.7862C266.087 26.5348 265.614 26.4091 265.068 26.4091C264.467 26.4091 263.948 26.5582 263.509 26.8565C263.074 27.1506 262.739 27.5341 262.505 28.0071C262.271 28.4801 262.154 28.9872 262.154 29.5284V30.3977C262.154 31.1392 262.281 31.7678 262.537 32.2834C262.797 32.7947 263.157 33.1847 263.617 33.4531C264.078 33.7173 264.612 33.8494 265.222 33.8494C265.618 33.8494 265.976 33.794 266.296 33.6832C266.619 33.5682 266.899 33.3977 267.133 33.1719C267.367 32.9418 267.548 32.6562 267.676 32.3153L269.134 32.7244C268.98 33.2188 268.722 33.6534 268.36 34.0284C267.998 34.3991 267.551 34.6889 267.018 34.8977C266.485 35.1023 265.886 35.2045 265.222 35.2045Z" fill="#232323"/>
<path fill-rule="evenodd" clip-rule="evenodd" d="M307.56 28.2741C307.56 27.4202 307.483 26.5992 307.341 25.811H296V30.469H302.481C302.201 31.9742 301.353 33.2495 300.078 34.1034V37.1247H303.969C306.246 35.0284 307.56 31.9413 307.56 28.2741Z" fill="#4285F4"/>
<path fill-rule="evenodd" clip-rule="evenodd" d="M296 40.0419C299.251 40.0419 301.977 38.9636 303.969 37.1245L300.078 34.1031C298.999 34.8256 297.62 35.2525 296 35.2525C292.864 35.2525 290.209 33.1343 289.262 30.2881H285.239V33.408C287.22 37.3434 291.293 40.0419 296 40.0419Z" fill="#34A853"/>
<path fill-rule="evenodd" clip-rule="evenodd" d="M289.262 30.288C289.021 29.5655 288.884 28.7938 288.884 28.0001C288.884 27.2064 289.021 26.4347 289.262 25.7122V22.5923H285.239C284.423 24.2179 283.958 26.057 283.958 28.0001C283.958 29.9432 284.423 31.7823 285.239 33.4079L289.262 30.288Z" fill="#FBBC05"/>
<path fill-rule="evenodd" clip-rule="evenodd" d="M296 20.7478C297.768 20.7478 299.355 21.3554 300.603 22.5486L304.057 19.0948C301.971 17.1517 299.246 15.9585 296 15.9585C291.293 15.9585 287.22 18.6569 285.239 22.5924L289.262 25.7123C290.209 22.866 292.864 20.7478 296 20.7478Z" fill="#EA4335"/>
</g>
<defs>
<filter id="filter0_d_2225_2662" x="0" y="0" width="403" height="58" filterUnits="userSpaceOnUse" color-interpolation-filters="sRGB">
<feFlood flood-opacity="0" result="BackgroundImageFix"/>
<feColorMatrix in="SourceAlpha" type="matrix" values="0 0 0 0 0 0 0 0 0 0 0 0 0 0 0 0 0 0 127 0" result="hardAlpha"/>
<feOffset dy="1"/>
<feGaussianBlur stdDeviation="1"/>
<feComposite in2="hardAlpha" operator="out"/>
<feColorMatrix type="matrix" values="0 0 0 0 0 0 0 0 0 0 0 0 0 0 0 0 0 0 0.03 0"/>
<feBlend mode="normal" in2="BackgroundImageFix" result="effect1_dropShadow_2225_2662"/>
<feBlend mode="normal" in="SourceGraphic" in2="effect1_dropShadow_2225_2662" result="shape"/>
</filter>
</defs>
</svg>
