<svg width="16" height="16" viewBox="0 0 16 16" fill="none" xmlns="http://www.w3.org/2000/svg">
<g clip-path="url(#clip0_1086_8352)">
<path fill-rule="evenodd" clip-rule="evenodd" d="M8 0C12.4183 0 16 3.58173 16 8C16 12.4183 12.4183 16 8 16C3.58173 16 0 12.4183 0 8C0 3.58173 3.58173 0 8 0Z" fill="#FA8232"/>
<path d="M9.04217 15.9328V9.75225H10.7856L11.0167 7.57697H9.04217L9.0451 6.48815C9.0451 5.92079 9.09903 5.61693 9.91445 5.61693H11.0045V3.44128H9.26065C7.16597 3.44128 6.42881 4.49647 6.42881 6.27123V7.57714H5.12305V9.75261H6.42881V15.8452C6.9375 15.9465 7.4634 16 8.00187 16C8.34972 16 8.69721 15.9776 9.04217 15.9328Z" fill="white"/>
</g>
<defs>
<clipPath id="clip0_1086_8352">
<rect width="16" height="16" fill="white"/>
</clipPath>
</defs>
</svg>
