<svg width="84" height="61" viewBox="0 0 84 61" fill="none" xmlns="http://www.w3.org/2000/svg">
<rect width="84" height="61" rx="10" fill="#F7F7F7"/>
<g clip-path="url(#clip0_855_6796)">
<path d="M58.6793 27.4573L44.4031 27.4566C43.7727 27.4566 43.2617 27.9675 43.2617 28.5979V33.1585C43.2617 33.7888 43.7727 34.2998 44.403 34.2998H52.4425C51.5622 36.5845 49.9191 38.4978 47.8228 39.7135L51.2508 45.6477C56.7498 42.4674 60.0008 36.8873 60.0008 30.6408C60.0008 29.7513 59.9353 29.1155 59.8041 28.3996C59.7045 27.8557 59.2322 27.4573 58.6793 27.4573Z" fill="#167EE6"/>
<path d="M42.4992 41.1522C38.5649 41.1522 35.1302 39.0025 33.2856 35.8216L27.3516 39.2419C30.3713 44.4756 36.0283 48 42.4992 48C45.6737 48 48.669 47.1453 51.2492 45.6558V45.6477L47.8212 39.7134C46.2532 40.6229 44.4387 41.1522 42.4992 41.1522Z" fill="#12B347"/>
<path d="M51.25 45.6558V45.6477L47.822 39.7134C46.254 40.6228 44.4396 41.1522 42.5 41.1522V48C45.6744 48 48.6698 47.1453 51.25 45.6558Z" fill="#0F993E"/>
<path d="M31.8478 30.5C31.8478 28.5607 32.3771 26.7464 33.2863 25.1784L27.3523 21.7581C25.8546 24.3303 25 27.3175 25 30.5C25 33.6825 25.8546 36.6697 27.3523 39.2419L33.2863 35.8216C32.3771 34.2536 31.8478 32.4393 31.8478 30.5Z" fill="#FFD500"/>
<path d="M42.4992 19.8478C45.0648 19.8478 47.4215 20.7595 49.2622 22.2759C49.7163 22.65 50.3763 22.6229 50.7923 22.207L54.0236 18.9756C54.4956 18.5037 54.4619 17.7312 53.9578 17.2938C50.8738 14.6183 46.8611 13 42.4992 13C36.0283 13 30.3713 16.5244 27.3516 21.7581L33.2856 25.1784C35.1302 21.9975 38.5649 19.8478 42.4992 19.8478Z" fill="#FF4B26"/>
<path d="M49.2629 22.2759C49.717 22.65 50.3771 22.6229 50.793 22.207L54.0244 18.9756C54.4962 18.5037 54.4626 17.7312 53.9585 17.2938C50.8745 14.6182 46.8618 13 42.5 13V19.8478C45.0655 19.8478 47.4222 20.7595 49.2629 22.2759Z" fill="#D93F21"/>
</g>
<defs>
<clipPath id="clip0_855_6796">
<rect width="35" height="35" fill="white" transform="translate(25 13)"/>
</clipPath>
</defs>
</svg>
