<svg xmlns="http://www.w3.org/2000/svg" width="22" height="23" viewBox="0 0 23 24" fill="white" style="
            top: -2px;
            left: -2px;
            position: relative;
            z-index: -1;
          ">
            <path fill-rule="evenodd" clip-rule="evenodd" d="M11.1582 1.9999C9.43842 1.9999 8.04453 3.3399 8.04453 4.9999H14.2719C14.2719 3.3399 12.878 1.9999 11.1582 1.9999ZM5.9689 5H4.7006C3.12196 5 1.79346 6.14 1.60872 7.65L0.0217786 20.65C-0.196179 22.43 1.24961 24 3.11366 24H19.2031C21.0671 24 22.5129 22.43 22.295 20.65L20.708 7.65C20.5233 6.14 19.1948 5 17.6161 5H16.3478C16.3478 2.24 14.024 0 11.1584 0C8.29171 0 5.9689 2.24 5.9689 5Z" fill="#black"></path>
          </svg>